<svg aria-hidden="true" style="position: absolute; width: 0; height: 0; overflow: hidden;" version="1.1" xmlns="http://www.w3.org/2000/svg" xmlns:xlink="http://www.w3.org/1999/xlink">
<defs>
<symbol id="icon-learn-arrow" viewBox="0 0 18 32">
<path fill="#8d5cf6" style="fill: var(--color1, #8d5cf6)" d="M0.362 0.362c0.114-0.115 0.25-0.206 0.4-0.268s0.31-0.094 0.472-0.094c0.162 0 0.322 0.032 0.472 0.094s0.285 0.153 0.4 0.268l14.767 14.768c0.115 0.114 0.206 0.25 0.268 0.4s0.094 0.31 0.094 0.472c0 0.162-0.032 0.322-0.094 0.472s-0.153 0.285-0.268 0.4l-14.768 14.768c-0.231 0.231-0.544 0.361-0.871 0.361s-0.64-0.13-0.871-0.361c-0.231-0.231-0.361-0.545-0.361-0.871s0.13-0.64 0.361-0.871l13.899-13.896-13.899-13.896c-0.115-0.114-0.206-0.25-0.268-0.4s-0.094-0.31-0.094-0.472c0-0.162 0.032-0.322 0.094-0.472s0.153-0.285 0.268-0.4z"></path>
</symbol>
<symbol id="icon-sale" viewBox="0 0 59 32">
<path fill="#e74040" style="fill: var(--color2, #e74040)" d="M4 5c0-1.657 1.343-3 3-3h45c1.657 0 3 1.343 3 3v18c0 1.657-1.343 3-3 3h-45c-1.657 0-3-1.343-3-3v-18z"></path>
<path fill="#fff" style="fill: var(--color3, #fff)" d="M18.563 10.908c-0.364 0-0.653 0.089-0.868 0.266-0.205 0.168-0.308 0.397-0.308 0.686 0 0.28 0.126 0.504 0.378 0.672 0.261 0.168 0.854 0.369 1.778 0.602 0.933 0.224 1.657 0.565 2.17 1.022s0.77 1.125 0.77 2.002c0 0.877-0.331 1.591-0.994 2.142-0.653 0.541-1.517 0.812-2.59 0.812-1.549 0-2.945-0.574-4.186-1.722l1.302-1.596c1.055 0.924 2.030 1.386 2.926 1.386 0.401 0 0.714-0.084 0.938-0.252 0.233-0.177 0.35-0.411 0.35-0.7 0-0.299-0.121-0.532-0.364-0.7-0.243-0.177-0.723-0.355-1.442-0.532-1.139-0.271-1.974-0.621-2.506-1.050-0.523-0.439-0.784-1.12-0.784-2.044 0-0.933 0.331-1.652 0.994-2.156 0.672-0.504 1.507-0.756 2.506-0.756 0.653 0 1.307 0.112 1.96 0.336s1.223 0.541 1.708 0.952l-1.106 1.596c-0.849-0.644-1.727-0.966-2.632-0.966zM30.729 19h-1.974v-0.91c-0.541 0.681-1.213 1.022-2.016 1.022-0.793 0-1.461-0.229-2.002-0.686-0.541-0.467-0.812-1.083-0.812-1.848 0-0.775 0.28-1.353 0.84-1.736s1.325-0.574 2.296-0.574h1.568v-0.042c0-0.803-0.425-1.204-1.274-1.204-0.364 0-0.751 0.075-1.162 0.224-0.401 0.14-0.742 0.317-1.022 0.532l-0.938-1.358c0.989-0.719 2.119-1.078 3.388-1.078 0.915 0 1.661 0.229 2.24 0.686s0.868 1.181 0.868 2.17v4.802zM28.614 16.13v-0.364h-1.316c-0.84 0-1.26 0.261-1.26 0.784 0 0.271 0.098 0.481 0.294 0.63 0.205 0.14 0.495 0.21 0.868 0.21s0.7-0.112 0.98-0.336c0.289-0.233 0.434-0.541 0.434-0.924zM34.943 19h-2.1v-10.388h2.1v10.388zM43.655 17.908c-0.849 0.803-1.848 1.204-2.996 1.204-1.139 0-2.081-0.35-2.828-1.050-0.747-0.709-1.12-1.657-1.12-2.842s0.378-2.128 1.134-2.828c0.765-0.7 1.666-1.050 2.702-1.050s1.913 0.313 2.632 0.938c0.728 0.625 1.092 1.484 1.092 2.576v1.12h-5.488c0.065 0.411 0.28 0.747 0.644 1.008s0.775 0.392 1.232 0.392c0.737 0 1.344-0.247 1.82-0.742l1.176 1.274zM42.143 14.478c-0.047-0.448-0.215-0.793-0.504-1.036s-0.644-0.364-1.064-0.364c-0.411 0-0.789 0.126-1.134 0.378s-0.546 0.593-0.602 1.022h3.304z"></path>
</symbol>
<symbol id="icon-arrow" viewBox="0 0 38 32">
<path fill="#fff" style="fill: var(--color3, #fff)" d="M0 16c0-0.606 0.253-1.187 0.703-1.616s1.060-0.669 1.697-0.669h27.803l-10.304-9.809c-0.451-0.429-0.704-1.011-0.704-1.618s0.253-1.189 0.704-1.618c0.451-0.429 1.062-0.67 1.699-0.67s1.248 0.241 1.699 0.67l14.398 13.712c0.223 0.212 0.401 0.464 0.522 0.742s0.183 0.575 0.183 0.876-0.062 0.598-0.183 0.876c-0.121 0.278-0.298 0.53-0.522 0.742l-14.398 13.712c-0.451 0.429-1.062 0.67-1.699 0.67s-1.248-0.241-1.699-0.67c-0.451-0.429-0.704-1.011-0.704-1.618s0.253-1.189 0.704-1.618l10.304-9.808h-27.803c-0.636 0-1.247-0.241-1.697-0.669s-0.703-1.010-0.703-1.616z"></path>
</symbol>
<symbol id="icon-arrow-card" viewBox="0 0 20 32">
<path fill="#8d5cf6" style="fill: var(--color1, #8d5cf6)" d="M0 27.429l11.429-11.429-11.429-11.429 2.286-4.571 16 16-16 16-2.286-4.571z"></path>
</symbol>
<symbol id="icon-basket" viewBox="0 0 32 32">
<path d="M0 2.613c0-0.269 0.107-0.526 0.297-0.717s0.448-0.297 0.717-0.297h3.040c0.226 0 0.446 0.076 0.624 0.215s0.305 0.334 0.359 0.553l0.821 3.285h23.53c0.149 0 0.296 0.033 0.43 0.096s0.254 0.156 0.349 0.27c0.095 0.115 0.164 0.249 0.201 0.393s0.043 0.295 0.015 0.441l-3.040 16.213c-0.043 0.232-0.167 0.442-0.348 0.593s-0.411 0.234-0.647 0.234h-18.241c-0.236-0-0.465-0.083-0.647-0.234s-0.305-0.361-0.348-0.593l-3.038-16.183-0.811-3.257h-2.25c-0.269 0-0.526-0.107-0.717-0.297s-0.297-0.448-0.297-0.717zM6.287 7.68l2.661 14.187h16.558l2.661-14.187h-21.881zM10.134 23.893c-1.075 0-2.106 0.427-2.866 1.187s-1.187 1.791-1.187 2.866c0 1.075 0.427 2.106 1.187 2.866s1.791 1.187 2.866 1.187c1.075 0 2.106-0.427 2.866-1.187s1.187-1.791 1.187-2.866c0-1.075-0.427-2.106-1.187-2.866s-1.791-1.187-2.866-1.187zM24.321 23.893c-1.075 0-2.106 0.427-2.866 1.187s-1.187 1.791-1.187 2.866c0 1.075 0.427 2.106 1.187 2.866s1.791 1.187 2.866 1.187c1.075 0 2.106-0.427 2.866-1.187s1.187-1.791 1.187-2.866c0-1.075-0.427-2.106-1.187-2.866s-1.791-1.187-2.866-1.187zM10.134 25.92c0.538 0 1.053 0.214 1.433 0.594s0.594 0.896 0.594 1.433c0 0.537-0.214 1.053-0.594 1.433s-0.896 0.594-1.433 0.594-1.053-0.213-1.433-0.594c-0.38-0.38-0.594-0.896-0.594-1.433s0.214-1.053 0.594-1.433 0.896-0.594 1.433-0.594zM24.321 25.92c0.537 0 1.053 0.214 1.433 0.594s0.594 0.896 0.594 1.433c0 0.537-0.214 1.053-0.594 1.433s-0.896 0.594-1.433 0.594c-0.538 0-1.053-0.213-1.433-0.594s-0.594-0.896-0.594-1.433c0-0.538 0.213-1.053 0.594-1.433s0.896-0.594 1.433-0.594v0z"></path>
</symbol>
<symbol id="icon-brain" viewBox="0 0 32 32">
<path fill="#ff7b52" style="fill: var(--color4, #ff7b52)" d="M29.41 16.775c-0.096-0.502-0.536-0.865-1.047-0.866h-1.030l-0.076-0.454c-0.076-0.456-0.435-0.812-0.891-0.884-0.101-0.016-0.204-0.027-0.305-0.041 0.175-0.815 0.030-1.667-0.405-2.378 0.23-0.596 0.187-1.263-0.117-1.824s-0.839-0.962-1.464-1.095c-0.399-2.138-2.259-3.691-4.434-3.705-0.053 0-0.101 0.007-0.151 0.009-0.347-0.546-0.92-0.908-1.562-0.988s-1.286 0.131-1.757 0.575c-0.593-0.385-1.284-0.591-1.991-0.591-1.139 0.005-2.213 0.533-2.911 1.434-0.775-0.226-1.611-0.087-2.272 0.377s-1.074 1.204-1.124 2.010c-0.814 0.342-1.344 1.139-1.345 2.022 0.002 0.153 0.020 0.306 0.053 0.455-0.72 1.085-0.908 2.439-0.511 3.68-0.143 0.020-0.289 0.037-0.427 0.058-0.459 0.069-0.821 0.426-0.898 0.883l-0.076 0.455h-1.033c-0.51 0-0.949 0.362-1.046 0.863l-2.335 11.99c-0.091 0.47 0.032 0.955 0.337 1.324s0.758 0.582 1.237 0.581h11.122c0.442 0.729 1.783 1.067 3.049 1.067 1.252 0 2.581-0.33 3.035-1.067h11.135c0.478 0.001 0.932-0.212 1.236-0.581s0.428-0.854 0.337-1.324l-2.335-11.987zM8.141 11.342c-0.433-0.26-0.64-0.777-0.506-1.264s0.576-0.825 1.082-0.827c0.354-0.001 0.686 0.167 0.895 0.452 0.114 0.153 0.3 0.234 0.489 0.212s0.353-0.143 0.428-0.318 0.052-0.377-0.061-0.53c-0.362-0.484-0.911-0.794-1.513-0.853 0.159-0.747 0.818-1.282 1.581-1.284 0.065 0.003 0.13 0.010 0.194 0.021-0.043 0.109-0.080 0.221-0.112 0.334-0.066 0.282 0.105 0.566 0.386 0.638s0.568-0.093 0.647-0.372c0.061-0.234 0.154-0.459 0.277-0.668 0.473-0.793 1.327-1.28 2.25-1.284 0.502 0.002 0.993 0.15 1.413 0.427-0.080 0.225-0.122 0.461-0.125 0.699 0 0.295 0.239 0.533 0.533 0.533s0.533-0.239 0.533-0.533c0-0.62 0.502-1.122 1.122-1.122s1.122 0.502 1.122 1.122c0 0.295 0.239 0.533 0.533 0.533s0.533-0.239 0.533-0.533c0-0.041-0.010-0.080-0.012-0.121 1.527 0.094 2.811 1.18 3.158 2.67-0.249 0.072-0.483 0.189-0.69 0.344-0.152 0.114-0.232 0.301-0.209 0.49s0.145 0.352 0.32 0.427c0.175 0.075 0.377 0.051 0.529-0.064 0.426-0.316 1.015-0.29 1.413 0.060s0.496 0.932 0.236 1.394c-0.116 0.204-0.293 0.367-0.505 0.467-0.223 0.108-0.342 0.355-0.288 0.597s0.268 0.414 0.515 0.417c0.078 0 0.155-0.017 0.226-0.051 0.141-0.069 0.275-0.152 0.398-0.249 0.276 0.784 0.103 1.655-0.451 2.275l-0.013 0.013c-0.695 0.753-1.803 0.956-2.72 0.499-0.090-0.047-0.176-0.101-0.258-0.161 0.393-0.551 0.447-1.274 0.141-1.877-0.086-0.17-0.256-0.282-0.446-0.293s-0.372 0.081-0.477 0.24c-0.105 0.159-0.116 0.362-0.030 0.533 0.175 0.352 0.066 0.78-0.257 1.005-0.19 0.126-0.424 0.166-0.645 0.11s-0.407-0.204-0.514-0.405c-0.085-0.17-0.255-0.282-0.445-0.294s-0.372 0.080-0.477 0.239c-0.105 0.159-0.117 0.362-0.032 0.533 0.313 0.631 0.957 1.030 1.662 1.028 0.229-0.002 0.456-0.046 0.669-0.132 0.191 0.167 0.4 0.31 0.625 0.427 0.76 0.394 1.644 0.476 2.463 0.228-0.527 0.72-1.316 1.203-2.196 1.347-0.274 0.045-0.468 0.292-0.446 0.568s0.252 0.49 0.53 0.491c0.028 0 0.057-0.002 0.085-0.006 0.325-0.056 0.642-0.149 0.946-0.276 0.164 0.291 0.298 0.597 0.398 0.916 0.018 0.056 0.028 0.114 0.028 0.172-0 0.23-0.138 0.439-0.35 0.529-0.245 0.095-0.524 0.020-0.689-0.185-0.413-0.485-0.954-0.844-1.561-1.037-1.153-0.386-1.597-0.731-1.786-1.107 0.277-0.035 0.55-0.092 0.818-0.171 0.182-0.056 0.321-0.205 0.363-0.391s-0.017-0.38-0.157-0.51c-0.14-0.13-0.338-0.175-0.52-0.119-0.299 0.092-0.608 0.149-0.921 0.169-0.602 0.047-1.206-0.044-1.767-0.267-0.211-0.082-0.45-0.023-0.598 0.149-0.777 0.892-2.106 1.044-3.063 0.349s-1.227-2.004-0.62-3.020c0.098-0.164 0.101-0.368 0.009-0.535s-0.268-0.272-0.459-0.275c-0.191-0.003-0.369 0.096-0.468 0.26-0.127 0.217-0.23 0.447-0.305 0.686-0.42-0.022-0.751-0.366-0.758-0.786v-0.013c-0-0.141-0.057-0.275-0.157-0.374s-0.236-0.154-0.376-0.152c-0.296 0.003-0.534 0.244-0.533 0.54 0.002 0.946 0.716 1.739 1.656 1.841 0.002 0.179 0.018 0.357 0.049 0.533-1.191 0.258-2.426-0.17-3.202-1.11s-0.963-2.233-0.486-3.354c0.119 0.121 0.253 0.227 0.397 0.316 0.252 0.148 0.576 0.065 0.726-0.185s0.072-0.575-0.176-0.729v0.002zM5.795 15.626c0.246-0.036 0.5-0.068 0.752-0.101 0.986 1.576 2.872 2.341 4.677 1.898 0.485 0.921 1.371 1.563 2.397 1.737s2.074-0.14 2.836-0.85c0.362 0.108 0.736 0.176 1.113 0.202 0.258 0.977 1.002 1.569 2.566 2.093 0.422 0.132 0.798 0.38 1.086 0.715 0.32 0.381 0.791 0.602 1.289 0.605 0.218-0 0.433-0.044 0.633-0.129 0.605-0.258 0.997-0.852 0.997-1.51 0-0.171-0.027-0.342-0.081-0.505-0.12-0.377-0.278-0.741-0.471-1.085 0.907-0.652 1.539-1.618 1.772-2.71 0.114-0.135 0.216-0.279 0.307-0.43 0.179 0.023 0.357 0.043 0.537 0.073l1.925 11.581c-3.763-1.257-7.833-1.257-11.597 0v-6.676c0-0.295-0.239-0.533-0.533-0.533s-0.533 0.239-0.533 0.533v6.678c-3.763-1.258-7.833-1.259-11.597-0.004l1.925-11.581zM1.414 29.403c-0.101-0.122-0.142-0.282-0.112-0.437l2.335-11.99h0.853l-1.674 10.058c-0.059 0.366 0.076 0.737 0.356 0.979s0.666 0.323 1.020 0.212c2.843-0.921 5.872-1.113 8.809-0.559l-0.159 1.933h-11.014c-0.161 0-0.313-0.072-0.415-0.196zM16 30.666c-1.285 0-2.022-0.38-2.13-0.549l0.183-2.213c0.586 0.146 1.16 0.338 1.716 0.575 0.072 0.035 0.151 0.053 0.23 0.053s0.159-0.018 0.231-0.053c0.556-0.238 1.129-0.432 1.716-0.579l0.183 2.217c-0.108 0.17-0.845 0.549-2.13 0.549v0zM30.586 29.403c-0.102 0.124-0.255 0.196-0.415 0.196h-11.013l-0.16-1.937c2.938-0.553 5.969-0.359 8.813 0.564 0.354 0.109 0.739 0.028 1.018-0.215s0.413-0.613 0.353-0.979l-1.672-10.056h0.853l2.336 11.989c0.030 0.156-0.012 0.316-0.114 0.438v0z"></path>
<path fill="#ff7b52" style="fill: var(--color4, #ff7b52)" d="M14.232 12.365c-0.218 0.197-0.235 0.535-0.038 0.753 0.452 0.499 1.050 0.844 1.709 0.986-0.298 0.421-0.782 0.67-1.298 0.669-0.295 0-0.533 0.239-0.533 0.533s0.239 0.533 0.533 0.533c1.104 0.004 2.095-0.678 2.485-1.71 1.326-0.22 2.376-1.241 2.633-2.56 0.040-0.189-0.026-0.384-0.171-0.511s-0.348-0.166-0.529-0.101-0.315 0.222-0.347 0.412c-0.105 0.55-0.422 1.037-0.883 1.354-0.887 0.598-2.077 0.462-2.807-0.32-0.197-0.218-0.535-0.235-0.753-0.038v0z"></path>
<path fill="#ff7b52" style="fill: var(--color4, #ff7b52)" d="M12.373 11.786c0.295 0 0.533-0.239 0.533-0.533 0-0.368 0.146-0.72 0.406-0.98s0.613-0.406 0.98-0.406c0.295 0 0.533-0.239 0.533-0.533s-0.239-0.533-0.533-0.533c-1.354 0.001-2.452 1.099-2.453 2.453 0 0.141 0.056 0.277 0.156 0.377s0.236 0.156 0.377 0.156v0z"></path>
<path fill="#ff7b52" style="fill: var(--color4, #ff7b52)" d="M16.533 1.333v-0.533c0-0.295-0.239-0.533-0.533-0.533s-0.533 0.239-0.533 0.533v0.533c0 0.295 0.239 0.533 0.533 0.533s0.533-0.239 0.533-0.533z"></path>
<path fill="#ff7b52" style="fill: var(--color4, #ff7b52)" d="M24.752 4.093l-0.533 0.533c-0.139 0.134-0.194 0.332-0.145 0.519s0.194 0.332 0.381 0.381c0.186 0.049 0.385-0.007 0.519-0.145l0.533-0.533c0.139-0.134 0.194-0.332 0.145-0.519s-0.194-0.332-0.381-0.381c-0.186-0.049-0.385 0.007-0.519 0.145z"></path>
<path fill="#ff7b52" style="fill: var(--color4, #ff7b52)" d="M7.404 5.537c0.216-0 0.41-0.13 0.493-0.329s0.037-0.429-0.116-0.581l-0.533-0.533c-0.134-0.139-0.332-0.194-0.519-0.145s-0.332 0.194-0.381 0.381c-0.049 0.186 0.007 0.385 0.145 0.519l0.533 0.533c0.1 0.1 0.236 0.156 0.377 0.156z"></path>
<path fill="#ff7b52" style="fill: var(--color4, #ff7b52)" d="M11.51 3.293c0.070-0 0.139-0.014 0.204-0.041 0.131-0.054 0.235-0.158 0.289-0.289s0.054-0.278-0-0.408l-0.613-1.478c-0.070-0.18-0.232-0.308-0.424-0.335s-0.382 0.053-0.499 0.207c-0.117 0.154-0.14 0.359-0.063 0.536l0.612 1.478c0.083 0.199 0.277 0.329 0.493 0.329v0z"></path>
<path fill="#ff7b52" style="fill: var(--color4, #ff7b52)" d="M21.307 0.789c-0.272-0.113-0.584 0.017-0.697 0.289l-0.613 1.478c-0.054 0.131-0.055 0.278-0 0.409s0.158 0.235 0.289 0.289c0.065 0.027 0.134 0.040 0.204 0.041 0.216 0 0.41-0.13 0.493-0.329l0.612-1.478c0.054-0.131 0.055-0.278 0-0.409s-0.158-0.235-0.289-0.289v0z"></path>
<path fill="#ff7b52" style="fill: var(--color4, #ff7b52)" d="M26.84 9.644c0.070-0 0.14-0.014 0.204-0.041l1.478-0.612c0.176-0.073 0.3-0.234 0.325-0.423s-0.053-0.377-0.204-0.493c-0.151-0.116-0.353-0.143-0.529-0.070l-1.478 0.612c-0.236 0.097-0.37 0.347-0.32 0.597s0.27 0.43 0.525 0.429z"></path>
<path fill="#ff7b52" style="fill: var(--color4, #ff7b52)" d="M4.956 9.602c0.272 0.113 0.584-0.016 0.697-0.289s-0.016-0.584-0.289-0.697l-1.478-0.612c-0.272-0.113-0.584 0.017-0.697 0.289s0.017 0.584 0.289 0.697l1.478 0.612z"></path>
</symbol>
<symbol id="icon-building" viewBox="0 0 32 32">
<path fill="#8d5cf6" style="fill: var(--color1, #8d5cf6)" d="M31.689 12.8h-9.067v-1.6c0-0.171-0.082-0.331-0.22-0.431l-5.647-4.107v-1.862h5.867c0.295 0 0.533-0.239 0.533-0.533v-3.2c0-0.295-0.239-0.533-0.533-0.533h-5.867c0-0.295-0.239-0.533-0.533-0.533s-0.533 0.239-0.533 0.533v6.129l-5.647 4.107c-0.138 0.1-0.22 0.261-0.22 0.431v1.6h-9.067c-0.295 0-0.533 0.239-0.533 0.533v18.133c0 0.295 0.239 0.533 0.533 0.533h30.933c0.295 0 0.533-0.239 0.533-0.533v-18.133c0-0.295-0.239-0.533-0.533-0.533zM16.756 1.6h5.333v2.133h-5.333v-2.133zM9.822 30.933h-8.533v-17.067h8.533v17.067zM18.356 30.933h-4.267v-5.333h4.267v5.333zM21.556 30.933h-2.133v-5.867c0-0.295-0.239-0.533-0.533-0.533h-5.333c-0.295 0-0.533 0.239-0.533 0.533v5.867h-2.133v-19.462l5.333-3.879 5.333 3.879v19.462zM31.156 30.933h-8.533v-17.067h8.533v17.067z"></path>
<path fill="#8d5cf6" style="fill: var(--color1, #8d5cf6)" d="M5.022 15.467h-2.133v1.067h2.133v-1.067z"></path>
<path fill="#8d5cf6" style="fill: var(--color1, #8d5cf6)" d="M8.222 15.467h-2.133v1.067h2.133v-1.067z"></path>
<path fill="#8d5cf6" style="fill: var(--color1, #8d5cf6)" d="M5.022 17.6h-2.133v1.067h2.133v-1.067z"></path>
<path fill="#8d5cf6" style="fill: var(--color1, #8d5cf6)" d="M8.222 17.6h-2.133v1.067h2.133v-1.067z"></path>
<path fill="#8d5cf6" style="fill: var(--color1, #8d5cf6)" d="M5.022 19.733h-2.133v1.067h2.133v-1.067z"></path>
<path fill="#8d5cf6" style="fill: var(--color1, #8d5cf6)" d="M8.222 19.733h-2.133v1.067h2.133v-1.067z"></path>
<path fill="#8d5cf6" style="fill: var(--color1, #8d5cf6)" d="M5.022 21.866h-2.133v1.067h2.133v-1.067z"></path>
<path fill="#8d5cf6" style="fill: var(--color1, #8d5cf6)" d="M8.222 21.866h-2.133v1.067h2.133v-1.067z"></path>
<path fill="#8d5cf6" style="fill: var(--color1, #8d5cf6)" d="M5.022 24h-2.133v1.067h2.133v-1.067z"></path>
<path fill="#8d5cf6" style="fill: var(--color1, #8d5cf6)" d="M8.222 24h-2.133v1.067h2.133v-1.067z"></path>
<path fill="#8d5cf6" style="fill: var(--color1, #8d5cf6)" d="M26.356 15.467h-2.133v1.067h2.133v-1.067z"></path>
<path fill="#8d5cf6" style="fill: var(--color1, #8d5cf6)" d="M29.556 15.467h-2.133v1.067h2.133v-1.067z"></path>
<path fill="#8d5cf6" style="fill: var(--color1, #8d5cf6)" d="M26.356 17.6h-2.133v1.067h2.133v-1.067z"></path>
<path fill="#8d5cf6" style="fill: var(--color1, #8d5cf6)" d="M29.556 17.6h-2.133v1.067h2.133v-1.067z"></path>
<path fill="#8d5cf6" style="fill: var(--color1, #8d5cf6)" d="M26.356 19.733h-2.133v1.067h2.133v-1.067z"></path>
<path fill="#8d5cf6" style="fill: var(--color1, #8d5cf6)" d="M29.556 19.733h-2.133v1.067h2.133v-1.067z"></path>
<path fill="#8d5cf6" style="fill: var(--color1, #8d5cf6)" d="M26.356 21.866h-2.133v1.067h2.133v-1.067z"></path>
<path fill="#8d5cf6" style="fill: var(--color1, #8d5cf6)" d="M29.556 21.866h-2.133v1.067h2.133v-1.067z"></path>
<path fill="#8d5cf6" style="fill: var(--color1, #8d5cf6)" d="M26.356 24h-2.133v1.067h2.133v-1.067z"></path>
<path fill="#8d5cf6" style="fill: var(--color1, #8d5cf6)" d="M29.556 24h-2.133v1.067h2.133v-1.067z"></path>
<path fill="#8d5cf6" style="fill: var(--color1, #8d5cf6)" d="M12.489 16c0.002 2.061 1.672 3.731 3.733 3.733 2.062 0 3.733-1.671 3.733-3.733s-1.671-3.733-3.733-3.733c-2.062 0-3.733 1.671-3.733 3.733zM18.889 16c0 1.473-1.194 2.667-2.667 2.667s-2.667-1.194-2.667-2.667c0.002-1.472 1.195-2.665 2.667-2.667 1.473 0 2.667 1.194 2.667 2.667z"></path>
<path fill="#8d5cf6" style="fill: var(--color1, #8d5cf6)" d="M15.689 15.466h-1.067v1.067h2.133v-2.667h-1.067v1.6z"></path>
</symbol>
<symbol id="icon-download" viewBox="0 0 32 32">
<path fill="#737373" style="fill: var(--color5, #737373)" d="M1 19.801c0.265 0 0.52 0.105 0.707 0.293s0.293 0.442 0.293 0.707v5c0 0.53 0.211 1.039 0.586 1.414s0.884 0.586 1.414 0.586h24c0.53 0 1.039-0.211 1.414-0.586s0.586-0.884 0.586-1.414v-5c0-0.265 0.105-0.52 0.293-0.707s0.442-0.293 0.707-0.293 0.52 0.105 0.707 0.293c0.187 0.188 0.293 0.442 0.293 0.707v5c0 1.061-0.421 2.078-1.172 2.828s-1.768 1.172-2.828 1.172h-24c-1.061 0-2.078-0.421-2.828-1.172s-1.172-1.768-1.172-2.828v-5c0-0.265 0.105-0.52 0.293-0.707s0.442-0.293 0.707-0.293z"></path>
<path fill="#737373" style="fill: var(--color5, #737373)" d="M15.292 23.708c0.093 0.093 0.203 0.167 0.325 0.217s0.252 0.076 0.383 0.076c0.132 0 0.262-0.026 0.383-0.076s0.232-0.124 0.325-0.217l6-6c0.188-0.188 0.293-0.442 0.293-0.708s-0.105-0.52-0.293-0.708c-0.188-0.188-0.442-0.293-0.708-0.293s-0.52 0.105-0.708 0.293l-4.292 4.294v-17.586c0-0.265-0.105-0.52-0.293-0.707s-0.442-0.293-0.707-0.293c-0.265 0-0.52 0.105-0.707 0.293s-0.293 0.442-0.293 0.707v17.586l-4.292-4.294c-0.188-0.188-0.442-0.293-0.708-0.293s-0.52 0.105-0.708 0.293c-0.188 0.188-0.293 0.442-0.293 0.708s0.105 0.52 0.293 0.708l6 6z"></path>
</symbol>
<symbol id="icon-empty-rating-star" viewBox="0 0 32 32">
<path fill="#f3cd03" style="fill: var(--color6, #f3cd03)" d="M8.344 18.279l-1.901 8.234c-0.059 0.249-0.041 0.511 0.051 0.75s0.254 0.445 0.465 0.591 0.46 0.224 0.717 0.226c0.256 0.002 0.507-0.074 0.719-0.217l6.949-4.632 6.949 4.632c0.217 0.144 0.474 0.219 0.735 0.213s0.514-0.091 0.725-0.245c0.211-0.154 0.37-0.368 0.455-0.615s0.093-0.513 0.022-0.764l-2.334-8.167 5.789-5.209c0.185-0.167 0.318-0.385 0.381-0.626s0.054-0.496-0.026-0.732c-0.080-0.236-0.228-0.444-0.424-0.597s-0.434-0.245-0.683-0.265l-7.275-0.579-3.148-6.969c-0.1-0.224-0.264-0.415-0.47-0.549s-0.447-0.205-0.693-0.205-0.486 0.071-0.693 0.205c-0.206 0.134-0.37 0.324-0.47 0.549l-3.148 6.969-7.275 0.578c-0.244 0.019-0.478 0.109-0.673 0.257s-0.343 0.35-0.426 0.581c-0.083 0.231-0.098 0.48-0.044 0.719s0.177 0.457 0.353 0.628l5.378 5.241zM11.985 12.759c0.228-0.018 0.447-0.097 0.633-0.228s0.335-0.311 0.428-0.519l2.296-5.080 2.296 5.080c0.094 0.208 0.242 0.388 0.428 0.519s0.406 0.21 0.633 0.228l5.069 0.402-4.174 3.757c-0.362 0.327-0.507 0.829-0.374 1.299l1.599 5.596-4.768-3.179c-0.209-0.14-0.456-0.215-0.708-0.215s-0.498 0.075-0.708 0.215l-4.982 3.322 1.34-5.801c0.049-0.213 0.043-0.436-0.019-0.646s-0.176-0.401-0.333-0.554l-3.877-3.78 5.219-0.416z"></path>
</symbol>
<symbol id="icon-envelope" viewBox="0 0 31 32">
<path fill="#8d5cf6" style="fill: var(--color1, #8d5cf6)" d="M-0.515 7.036c0.202-0.906 0.697-1.715 1.406-2.295s1.588-0.895 2.494-0.895h24c0.906-0 1.786 0.315 2.494 0.895s1.204 1.389 1.406 2.295l-15.9 9.967-15.9-9.967zM-0.615 9.378v14.572l11.606-7.298-11.606-7.274zM12.907 17.856l-13.14 8.261c0.325 0.702 0.837 1.295 1.478 1.71s1.383 0.635 2.14 0.634h24c0.758 0 1.5-0.22 2.14-0.636s1.152-1.009 1.476-1.711l-13.14-8.26-2.476 1.553-2.478-1.551zM19.779 16.654l11.606 7.296v-14.572l-11.606 7.276z"></path>
</symbol>
<symbol id="icon-facebook" viewBox="0 0 32 32">
<path fill="#8d5cf6" style="fill: var(--color1, #8d5cf6)" d="M31.333 15.427c0-8.52-6.865-15.427-15.331-15.427-8.471 0.002-15.335 6.907-15.335 15.429 0 7.698 5.607 14.080 12.936 15.237v-10.78h-3.89v-4.458h3.894v-3.402c0-3.865 2.29-6 5.791-6 1.679 0 3.432 0.301 3.432 0.301v3.795h-1.934c-1.903 0-2.497 1.19-2.497 2.411v2.894h4.251l-0.678 4.458h-3.574v10.78c7.328-1.158 12.936-7.539 12.936-15.238z"></path>
</symbol>
<symbol id="icon-favorite" viewBox="0 0 32 32">
<path d="M16.001 9.525l-2.184-2.236c-0.557-0.567-1.221-1.017-1.953-1.324s-1.519-0.466-2.314-0.466c-0.794 0-1.581 0.158-2.314 0.466s-1.396 0.757-1.953 1.324c-1.142 1.16-1.783 2.723-1.783 4.351s0.64 3.191 1.783 4.351l0 0 10.716 10.85 10.716-10.851c1.143-1.16 1.783-2.723 1.783-4.351s-0.64-3.191-1.783-4.35c-0.556-0.567-1.22-1.018-1.953-1.325s-1.519-0.465-2.313-0.465c-0 0-0.001 0-0.001 0l0 0.5M16.001 9.525l2.172-2.215 0.357 0.35M16.001 9.525l2.17-2.213M16.001 9.525l2.17-2.213M22.451 6c-0.731-0.001-1.456 0.145-2.129 0.431s-1.283 0.703-1.791 1.229M22.451 6c0.728-0.001 1.449 0.144 2.12 0.426s1.28 0.694 1.79 1.214l-3.91-1.64zM18.531 7.66l-0.36-0.347M18.531 7.66l-0.36-0.347M22.45 4.5h0c0.928 0 1.846 0.185 2.702 0.544s1.631 0.885 2.281 1.546c1.326 1.35 2.069 3.167 2.069 5.060s-0.743 3.709-2.069 5.059c-0 0-0 0-0.001 0.001l-11.433 11.579-11.433-11.579c-0-0-0-0-0-0-1.326-1.35-2.069-3.167-2.069-5.059s0.743-3.709 2.069-5.059c0.651-0.661 1.426-1.187 2.282-1.545s1.774-0.543 2.702-0.543c0.928 0 1.846 0.185 2.702 0.543s1.631 0.884 2.282 1.545l0.001 0.001 1.465 1.478 1.467-1.48c0.65-0.662 1.425-1.189 2.281-1.548s1.774-0.543 2.702-0.543z"></path>
</symbol>
<symbol id="icon-instagram" viewBox="0 0 32 32">
<path fill="#8d5cf6" style="fill: var(--color1, #8d5cf6)" d="M16.667 1.333c-3.98 0-4.481 0.018-6.044 0.088-1.564 0.073-2.629 0.319-3.562 0.682-0.979 0.368-1.865 0.946-2.598 1.692-0.746 0.733-1.323 1.619-1.692 2.598-0.363 0.931-0.611 1.998-0.682 3.557-0.070 1.567-0.088 2.066-0.088 6.052 0 3.982 0.018 4.481 0.088 6.044 0.073 1.562 0.319 2.627 0.682 3.56 0.376 0.964 0.876 1.782 1.692 2.598 0.814 0.816 1.632 1.318 2.596 1.692 0.935 0.363 1.998 0.611 3.56 0.682 1.566 0.070 2.064 0.088 6.048 0.088s4.481-0.018 6.046-0.088c1.56-0.073 2.629-0.319 3.562-0.682 0.978-0.368 1.864-0.946 2.596-1.692 0.816-0.816 1.316-1.634 1.692-2.598 0.361-0.933 0.609-1.998 0.682-3.56 0.070-1.564 0.088-2.062 0.088-6.046s-0.018-4.482-0.088-6.048c-0.073-1.56-0.321-2.627-0.682-3.559-0.369-0.979-0.946-1.865-1.692-2.598-0.732-0.747-1.619-1.324-2.598-1.692-0.935-0.363-2.002-0.611-3.562-0.682-1.566-0.070-2.063-0.088-6.048-0.088h0.004zM15.352 3.977h1.316c3.916 0 4.38 0.013 5.925 0.084 1.43 0.064 2.207 0.304 2.724 0.504 0.684 0.266 1.173 0.585 1.687 1.098s0.831 1.001 1.096 1.687c0.202 0.515 0.44 1.293 0.504 2.723 0.071 1.546 0.086 2.009 0.086 5.924s-0.015 4.38-0.086 5.925c-0.064 1.43-0.304 2.206-0.504 2.723-0.235 0.637-0.611 1.213-1.098 1.685-0.513 0.513-1.001 0.831-1.687 1.096-0.513 0.202-1.291 0.44-2.723 0.506-1.546 0.070-2.009 0.086-5.925 0.086s-4.382-0.017-5.927-0.086c-1.43-0.066-2.206-0.304-2.723-0.506-0.637-0.235-1.213-0.609-1.687-1.096-0.488-0.473-0.864-1.049-1.1-1.687-0.2-0.515-0.44-1.293-0.504-2.723-0.070-1.546-0.084-2.009-0.084-5.927 0-3.916 0.015-4.378 0.084-5.924 0.066-1.43 0.304-2.207 0.506-2.724 0.266-0.684 0.585-1.173 1.098-1.687s1.001-0.83 1.687-1.096c0.517-0.202 1.293-0.44 2.723-0.506 1.353-0.062 1.877-0.081 4.611-0.083v0.004zM24.497 6.412c-0.231 0-0.46 0.046-0.673 0.134s-0.408 0.218-0.571 0.382c-0.163 0.163-0.293 0.357-0.381 0.571s-0.134 0.442-0.134 0.674c0 0.231 0.046 0.46 0.134 0.674s0.218 0.408 0.381 0.571c0.163 0.163 0.357 0.293 0.571 0.382s0.442 0.134 0.673 0.134c0.467 0 0.915-0.185 1.245-0.515s0.515-0.778 0.515-1.245-0.185-0.914-0.515-1.245c-0.33-0.33-0.778-0.516-1.245-0.516zM16.669 8.469c-0.999-0.016-1.991 0.168-2.919 0.539s-1.772 0.924-2.484 1.625-1.277 1.537-1.663 2.458c-0.386 0.922-0.585 1.911-0.585 2.91s0.199 1.988 0.585 2.91c0.386 0.922 0.951 1.757 1.663 2.458s1.556 1.253 2.484 1.625c0.928 0.372 1.92 0.555 2.919 0.539 1.977-0.031 3.863-0.838 5.251-2.247s2.165-3.307 2.165-5.285-0.778-3.876-2.165-5.285c-1.387-1.409-3.273-2.216-5.251-2.247zM16.669 11.111c1.297 0 2.54 0.515 3.457 1.432s1.432 2.161 1.432 3.457-0.515 2.54-1.432 3.457c-0.917 0.917-2.161 1.432-3.457 1.432s-2.541-0.515-3.457-1.432c-0.917-0.917-1.432-2.161-1.432-3.457s0.515-2.54 1.432-3.457c0.917-0.917 2.161-1.432 3.457-1.432z"></path>
</symbol>
<symbol id="icon-like" viewBox="0 0 32 32">
<path d="M20 16c0 1.061-0.421 2.078-1.172 2.828s-1.768 1.172-2.828 1.172c-1.061 0-2.078-0.421-2.828-1.172s-1.172-1.768-1.172-2.828c0-1.061 0.421-2.078 1.172-2.828s1.768-1.172 2.828-1.172c1.061 0 2.078 0.421 2.828 1.172s1.172 1.768 1.172 2.828z"></path>
<path d="M3.2 16c0 0 4.8-8.8 12.8-8.8s12.8 8.8 12.8 8.8c0 0-4.8 8.8-12.8 8.8s-12.8-8.8-12.8-8.8zM16 21.6c1.485 0 2.91-0.59 3.96-1.64s1.64-2.475 1.64-3.96c0-1.485-0.59-2.91-1.64-3.96s-2.475-1.64-3.96-1.64c-1.485 0-2.91 0.59-3.96 1.64s-1.64 2.475-1.64 3.96c0 1.485 0.59 2.91 1.64 3.96s2.475 1.64 3.96 1.64z"></path>
</symbol>
<symbol id="icon-location" viewBox="0 0 26 32">
<path fill="#8d5cf6" style="fill: var(--color1, #8d5cf6)" d="M12.8 19.2c3.529 0 6.4-2.87 6.4-6.4s-2.87-6.4-6.4-6.4c-3.53 0-6.4 2.87-6.4 6.4s2.87 6.4 6.4 6.4zM12.8 9.6c1.765 0 3.2 1.435 3.2 3.2s-1.435 3.2-3.2 3.2c-1.765 0-3.2-1.435-3.2-3.2s1.435-3.2 3.2-3.2zM11.872 31.702c0.271 0.193 0.595 0.297 0.928 0.297s0.657-0.104 0.928-0.297c0.486-0.344 11.918-8.598 11.872-18.902 0-7.058-5.742-12.8-12.8-12.8s-12.8 5.742-12.8 12.792c-0.046 10.312 11.385 18.566 11.872 18.91zM12.8 3.2c5.294 0 9.6 4.306 9.6 9.608 0.034 7.101-7.021 13.477-9.6 15.568-2.578-2.093-9.633-8.47-9.6-15.576 0-5.294 4.306-9.6 9.6-9.6zM12.8 19.2c3.529 0 6.4-2.87 6.4-6.4s-2.87-6.4-6.4-6.4c-3.53 0-6.4 2.87-6.4 6.4s2.87 6.4 6.4 6.4zM12.8 9.6c1.765 0 3.2 1.435 3.2 3.2s-1.435 3.2-3.2 3.2c-1.765 0-3.2-1.435-3.2-3.2s1.435-3.2 3.2-3.2zM11.872 31.702c0.271 0.193 0.595 0.297 0.928 0.297s0.657-0.104 0.928-0.297c0.486-0.344 11.918-8.598 11.872-18.902 0-7.058-5.742-12.8-12.8-12.8s-12.8 5.742-12.8 12.792c-0.046 10.312 11.385 18.566 11.872 18.91zM12.8 3.2c5.294 0 9.6 4.306 9.6 9.608 0.034 7.101-7.021 13.477-9.6 15.568-2.578-2.093-9.633-8.47-9.6-15.576 0-5.294 4.306-9.6 9.6-9.6z"></path>
</symbol>
<symbol id="icon-phone" viewBox="0 0 33 32">
<path fill="#8d5cf6" style="fill: var(--color1, #8d5cf6)" d="M25.797 16.469c-0.149-0.149-0.325-0.267-0.519-0.347s-0.402-0.122-0.612-0.122-0.418 0.041-0.612 0.122c-0.194 0.081-0.371 0.199-0.519 0.347l-2.55 2.55c-1.182-0.352-3.389-1.152-4.787-2.55s-2.198-3.605-2.55-4.787l2.55-2.55c0.149-0.148 0.267-0.325 0.347-0.519s0.122-0.402 0.122-0.612-0.041-0.418-0.122-0.612c-0.080-0.194-0.198-0.37-0.347-0.519l-6.4-6.4c-0.148-0.149-0.325-0.267-0.519-0.347s-0.402-0.122-0.612-0.122c-0.21 0-0.418 0.041-0.612 0.122s-0.37 0.198-0.519 0.347l-4.339 4.339c-0.608 0.608-0.95 1.443-0.938 2.296 0.037 2.278 0.64 10.192 6.877 16.429s14.15 6.838 16.43 6.877h0.045c0.845 0 1.643-0.333 2.248-0.938l4.339-4.339c0.149-0.149 0.267-0.325 0.347-0.519s0.122-0.402 0.122-0.612-0.041-0.418-0.122-0.612c-0.080-0.194-0.198-0.37-0.347-0.519l-6.4-6.402zM25.594 27.208c-1.997-0.034-8.829-0.57-14.197-5.939-5.386-5.386-5.907-12.242-5.939-14.198l3.208-3.208 4.138 4.138-2.069 2.069c-0.188 0.188-0.326 0.42-0.402 0.675s-0.087 0.524-0.033 0.785c0.038 0.184 0.978 4.547 3.634 7.203s7.019 3.595 7.203 3.634c0.26 0.056 0.53 0.045 0.785-0.030s0.487-0.215 0.674-0.403l2.070-2.069 4.138 4.138-3.21 3.208z"></path>
</symbol>
<symbol id="icon-rating-star" viewBox="0 0 32 32">
<path fill="#f3cd03" style="fill: var(--color6, #f3cd03)" d="M29.352 11.713c-0.080-0.236-0.228-0.444-0.425-0.597s-0.434-0.246-0.683-0.266l-7.275-0.578-3.148-6.969c-0.1-0.224-0.263-0.415-0.47-0.549s-0.447-0.205-0.693-0.205c-0.246-0-0.486 0.071-0.693 0.204s-0.37 0.324-0.47 0.548l-3.148 6.97-7.275 0.578c-0.244 0.019-0.478 0.109-0.673 0.257s-0.343 0.35-0.426 0.581c-0.083 0.231-0.098 0.48-0.044 0.719s0.177 0.457 0.353 0.628l5.376 5.241-1.901 8.234c-0.058 0.249-0.039 0.51 0.053 0.749s0.254 0.444 0.465 0.589c0.21 0.145 0.46 0.224 0.716 0.226s0.506-0.073 0.719-0.215l6.949-4.632 6.949 4.632c0.217 0.144 0.474 0.219 0.735 0.213s0.514-0.091 0.725-0.245 0.37-0.368 0.455-0.615c0.085-0.247 0.093-0.514 0.022-0.765l-2.334-8.167 5.789-5.209c0.379-0.342 0.518-0.875 0.355-1.359z"></path>
</symbol>
<symbol id="icon-star" viewBox="0 0 32 32">
<path fill="#ffce31" style="fill: var(--color8, #ffce31)" d="M31 12.6h-11.45l-3.55-11.1-3.55 11.1h-11.45l9.25 6.85-3.5 11.050 9.25-6.85 9.25 6.85-3.55-11.1 9.3-6.8z"></path>
</symbol>
<symbol id="icon-twitter" viewBox="0 0 38 32">
<path fill="#8d5cf6" style="fill: var(--color1, #8d5cf6)" d="M13.457 30.4c13.284 0 20.55-11.083 20.55-20.677 0-0.31 0-0.625-0.013-0.935 1.415-1.031 2.636-2.308 3.606-3.77-1.321 0.587-2.722 0.973-4.156 1.148 1.51-0.909 2.642-2.339 3.184-4.025-1.419 0.846-2.972 1.441-4.592 1.757-1.088-1.167-2.529-1.941-4.098-2.2s-3.18 0.009-4.582 0.765c-1.402 0.755-2.518 1.955-3.174 3.414s-0.817 3.094-0.456 4.654c-2.872-0.145-5.681-0.896-8.245-2.205s-4.828-3.145-6.642-5.391c-0.921 1.602-1.202 3.497-0.786 5.3s1.498 3.379 3.026 4.408c-1.145-0.039-2.265-0.349-3.269-0.904v0.1c0.002 1.678 0.579 3.304 1.634 4.603s2.523 2.191 4.156 2.526c-0.62 0.172-1.26 0.258-1.903 0.255-0.453 0.001-0.906-0.041-1.351-0.126 0.462 1.444 1.36 2.707 2.57 3.612s2.671 1.405 4.177 1.432c-2.56 2.024-5.721 3.122-8.976 3.117-0.574 0.002-1.147-0.031-1.716-0.1 3.303 2.121 7.14 3.247 11.057 3.245z"></path>
</symbol>
</defs>
</svg>
