<svg xmlns="http://www.w3.org/2000/svg" width="20" height="20" fill="none">
  <path fill="#BDBDBD" stroke="#252B42" stroke-width=".625" d="M10 5.953 8.638 4.557l-.001-.001a3.738 3.738 0 0 0-5.333 0 3.875 3.875 0 0 0 0 5.438l6.475 6.557.223.225.222-.225 6.475-6.556a3.875 3.875 0 0 0 0-5.439 3.731 3.731 0 0 0-2.666-1.119v.313M10 5.953l1.357-1.384.224.218M10 5.954l1.356-1.383m-1.356 1.383 1.356-1.383m2.675-.82a3.4 3.4 0 0 0-2.45 1.037m2.45-1.037a3.418 3.418 0 0 1 2.444 1.025L14.032 3.75Zm-2.45 1.037-.225-.217m.225.217-.225-.217m2.675-1.758a4.37 4.37 0 0 1 3.114 1.307 4.513 4.513 0 0 1 0 6.324L10 17.68l-7.145-7.236a4.513 4.513 0 0 1 0-6.325 4.369 4.369 0 0 1 6.229 0v.001l.695.7.222.224.221-.224.694-.7.001-.001a4.356 4.356 0 0 1 3.114-1.306Z"/>
</svg>
