 <svg xmlns="http://www.w3.org/2000/svg" aria-hidden="true" style="position:absolute;width:0;height:0;overflow:hidden"><defs><symbol id="icon-arrow" viewBox="0 0 38 32"><path fill="#fff" d="M0 16c0-.606.253-1.187.703-1.616s1.06-.669 1.697-.669h27.803L19.899 3.906c-.451-.429-.704-1.011-.704-1.618s.253-1.189.704-1.618C20.35.241 20.961 0 21.598 0s1.248.241 1.699.67l14.398 13.712c.223.212.401.464.522.742a2.19 2.19 0 0 1 0 1.752c-.121.278-.298.53-.522.742L23.297 31.33c-.451.429-1.062.67-1.699.67s-1.248-.241-1.699-.67c-.451-.429-.704-1.011-.704-1.618s.253-1.189.704-1.618l10.304-9.808H2.4c-.636 0-1.247-.241-1.697-.669S0 16.607 0 16.001z" style="fill:var(--color1, #fff)"/></symbol><symbol id="icon-arrow-card" viewBox="0 0 20 32"><path fill="#8d5cf6" d="M0 27.429 11.429 16 0 4.571 2.286 0l16 16-16 16L0 27.429z" style="fill:var(--color2, #8d5cf6)"/></symbol><symbol id="icon-basket" viewBox="0 0 32 32"><path d="M0 2.613a1.016 1.016 0 0 1 1.014-1.014h3.04a1.015 1.015 0 0 1 .983.768l.821 3.285h23.53a1.011 1.011 0 0 1 .995 1.2l-3.04 16.213a1.015 1.015 0 0 1-.995.827H8.107a1.014 1.014 0 0 1-.995-.827L4.074 6.882l-.811-3.257h-2.25A1.016 1.016 0 0 1-.001 2.611zM6.287 7.68l2.661 14.187h16.558L28.167 7.68H6.286zm3.847 16.213a4.053 4.053 0 1 0 0 8.106 4.053 4.053 0 0 0 0-8.106zm14.187 0a4.053 4.053 0 1 0 0 8.106 4.053 4.053 0 0 0 0-8.106zM10.134 25.92a2.026 2.026 0 1 1 0 4.052 2.026 2.026 0 0 1 0-4.052zm14.187 0a2.028 2.028 0 0 1 0 4.054 2.03 2.03 0 0 1-1.433-3.46 2.03 2.03 0 0 1 1.433-.594z"/></symbol><symbol id="icon-brain" viewBox="0 0 32 32"><path fill="#ff7b52" d="M29.41 16.775a1.068 1.068 0 0 0-1.047-.866h-1.03l-.076-.454a1.073 1.073 0 0 0-.891-.884c-.101-.016-.204-.027-.305-.041a3.25 3.25 0 0 0-.405-2.378 2.181 2.181 0 0 0-1.581-2.919 4.539 4.539 0 0 0-4.434-3.705c-.053 0-.101.007-.151.009a2.168 2.168 0 0 0-3.319-.413 3.656 3.656 0 0 0-1.991-.591 3.702 3.702 0 0 0-2.911 1.434 2.66 2.66 0 0 0-3.396 2.387 2.196 2.196 0 0 0-1.345 2.022c.002.153.02.306.053.455a4.291 4.291 0 0 0-.511 3.68c-.143.02-.289.037-.427.058a1.073 1.073 0 0 0-.898.883l-.076.455H3.636c-.51 0-.949.362-1.046.863L.255 28.76a1.6 1.6 0 0 0 1.574 1.905h11.122c.442.729 1.783 1.067 3.049 1.067 1.252 0 2.581-.33 3.035-1.067H30.17a1.597 1.597 0 0 0 1.573-1.905l-2.335-11.987zM8.141 11.342a1.126 1.126 0 0 1 .576-2.091c.354-.001.686.167.895.452a.533.533 0 1 0 .856-.636 2.152 2.152 0 0 0-1.513-.853 1.622 1.622 0 0 1 1.581-1.284c.065.003.13.01.194.021-.043.109-.08.221-.112.334a.533.533 0 0 0 1.033.266 2.62 2.62 0 0 1 .277-.668 2.633 2.633 0 0 1 2.25-1.284c.502.002.993.15 1.413.427-.08.225-.122.461-.125.699a.533.533 0 1 0 1.066 0 1.122 1.122 0 1 1 2.244 0 .533.533 0 1 0 1.066 0c0-.041-.01-.08-.012-.121a3.461 3.461 0 0 1 3.158 2.67 2.148 2.148 0 0 0-.69.344.533.533 0 0 0 .64.853 1.125 1.125 0 0 1 1.649 1.454 1.14 1.14 0 0 1-.505.467.534.534 0 0 0 .227 1.014.522.522 0 0 0 .226-.051c.141-.069.275-.152.398-.249a2.278 2.278 0 0 1-.451 2.275l-.013.013a2.303 2.303 0 0 1-2.72.499 2.023 2.023 0 0 1-.258-.161 1.816 1.816 0 0 0 .141-1.877.535.535 0 0 0-.923-.053.532.532 0 0 0-.03.533.794.794 0 0 1-.257 1.005.808.808 0 0 1-1.159-.295.535.535 0 0 0-.922-.055.535.535 0 0 0-.032.533 1.85 1.85 0 0 0 1.662 1.028c.229-.002.456-.046.669-.132.191.167.4.31.625.427.76.394 1.644.476 2.463.228a3.401 3.401 0 0 1-2.196 1.347.533.533 0 0 0 .169 1.053c.325-.056.642-.149.946-.276.164.291.298.597.398.916a.576.576 0 0 1-.322.701.605.605 0 0 1-.689-.185 3.405 3.405 0 0 0-1.561-1.037c-1.153-.386-1.597-.731-1.786-1.107.277-.035.55-.092.818-.171a.532.532 0 1 0-.314-1.02 3.999 3.999 0 0 1-.921.169 3.95 3.95 0 0 1-1.767-.267.533.533 0 0 0-.598.149 2.283 2.283 0 0 1-3.683-2.671.534.534 0 1 0-.918-.55c-.127.217-.23.447-.305.686a.8.8 0 0 1-.758-.786v-.013a.526.526 0 0 0-.533-.526.538.538 0 0 0-.533.54 1.856 1.856 0 0 0 1.656 1.841c.002.179.018.357.049.533a3.261 3.261 0 0 1-3.688-4.464c.119.121.253.227.397.316a.532.532 0 0 0 .55-.914v.002zm-2.346 4.284c.246-.036.5-.068.752-.101a4.306 4.306 0 0 0 4.677 1.898 3.34 3.34 0 0 0 5.233.887c.362.108.736.176 1.113.202.258.977 1.002 1.569 2.566 2.093.422.132.798.38 1.086.715.32.381.791.602 1.289.605.218 0 .433-.044.633-.129a1.64 1.64 0 0 0 .916-2.015 5.837 5.837 0 0 0-.471-1.085 4.493 4.493 0 0 0 1.772-2.71c.114-.135.216-.279.307-.43.179.023.357.043.537.073L28.13 27.21a18.304 18.304 0 0 0-11.597 0v-6.676a.533.533 0 1 0-1.066 0v6.678a18.31 18.31 0 0 0-11.597-.004l1.925-11.581zM1.414 29.403a.527.527 0 0 1-.112-.437l2.335-11.99h.853L2.816 27.034a1.07 1.07 0 0 0 1.376 1.191 17.848 17.848 0 0 1 8.809-.559l-.159 1.933H1.828a.537.537 0 0 1-.415-.196zM16 30.666c-1.285 0-2.022-.38-2.13-.549l.183-2.213c.586.146 1.16.338 1.716.575a.527.527 0 0 0 .461 0 11.39 11.39 0 0 1 1.716-.579l.183 2.217c-.108.17-.845.549-2.13.549zm14.586-1.263a.539.539 0 0 1-.415.196H19.158l-.16-1.937a17.854 17.854 0 0 1 8.813.564 1.07 1.07 0 0 0 1.371-1.194L27.51 16.976h.853l2.336 11.989a.526.526 0 0 1-.114.438z" style="fill:var(--color3, #ff7b52)"/><path fill="#ff7b52" d="M14.232 12.365a.534.534 0 0 0-.038.753c.452.499 1.05.844 1.709.986-.298.421-.782.67-1.298.669a.533.533 0 1 0 0 1.066 2.647 2.647 0 0 0 2.485-1.71 3.22 3.22 0 0 0 2.633-2.56.533.533 0 1 0-1.047-.2 2.127 2.127 0 0 1-.883 1.354 2.176 2.176 0 0 1-2.807-.32.534.534 0 0 0-.753-.038zM12.373 11.786a.533.533 0 0 0 .533-.533 1.385 1.385 0 0 1 1.386-1.386.533.533 0 1 0 0-1.066 2.455 2.455 0 0 0-2.453 2.453.534.534 0 0 0 .533.533zM16.533 1.333V.8a.533.533 0 1 0-1.066 0v.533a.533.533 0 1 0 1.066 0zM24.752 4.093l-.533.533a.532.532 0 0 0 .236.9.535.535 0 0 0 .519-.145l.533-.533a.532.532 0 0 0-.236-.9.535.535 0 0 0-.519.145zM7.404 5.537a.534.534 0 0 0 .377-.91l-.533-.533a.532.532 0 0 0-.9.236.535.535 0 0 0 .145.519l.533.533c.1.1.236.156.377.156zM11.51 3.293a.53.53 0 0 0 .493-.33.534.534 0 0 0 0-.408l-.613-1.478a.534.534 0 1 0-.986.408l.612 1.478a.534.534 0 0 0 .493.329zM21.307.789a.534.534 0 0 0-.697.289l-.613 1.478a.532.532 0 0 0 .289.698.534.534 0 0 0 .697-.288l.612-1.478a.532.532 0 0 0-.289-.698zM26.84 9.644c.07 0 .14-.014.204-.041l1.478-.612a.534.534 0 0 0-.408-.986l-1.478.612a.532.532 0 0 0 .205 1.026zM4.956 9.602a.533.533 0 1 0 .408-.986l-1.478-.612a.534.534 0 0 0-.408.986l1.478.612z" style="fill:var(--color3, #ff7b52)"/></symbol><symbol id="icon-building" viewBox="0 0 32 32"><path fill="#8d5cf6" d="M31.689 12.8h-9.067v-1.6a.532.532 0 0 0-.22-.431l-5.647-4.107V4.8h5.867a.533.533 0 0 0 .533-.533v-3.2a.533.533 0 0 0-.533-.533h-5.867a.533.533 0 1 0-1.066 0v6.129l-5.647 4.107a.533.533 0 0 0-.22.431v1.6H.755a.533.533 0 0 0-.533.533v18.133c0 .295.239.533.533.533h30.933a.533.533 0 0 0 .533-.533V13.334a.533.533 0 0 0-.533-.533zM16.756 1.6h5.333v2.133h-5.333V1.6zM9.822 30.933H1.289V13.866h8.533v17.067zm8.534 0h-4.267V25.6h4.267v5.333zm3.2 0h-2.133v-5.867a.533.533 0 0 0-.533-.533h-5.333a.533.533 0 0 0-.533.533v5.867h-2.133V11.471l5.333-3.879 5.333 3.879v19.462zm9.6 0h-8.533V13.866h8.533v17.067z" style="fill:var(--color2, #8d5cf6)"/><path fill="#8d5cf6" d="M5.022 15.467H2.889v1.067h2.133v-1.067zM8.222 15.467H6.089v1.067h2.133v-1.067zM5.022 17.6H2.889v1.067h2.133V17.6zM8.222 17.6H6.089v1.067h2.133V17.6zM5.022 19.733H2.889V20.8h2.133v-1.067zM8.222 19.733H6.089V20.8h2.133v-1.067zM5.022 21.866H2.889v1.067h2.133v-1.067zM8.222 21.866H6.089v1.067h2.133v-1.067zM5.022 24H2.889v1.067h2.133V24zM8.222 24H6.089v1.067h2.133V24zM26.356 15.467h-2.133v1.067h2.133v-1.067zM29.556 15.467h-2.133v1.067h2.133v-1.067zM26.356 17.6h-2.133v1.067h2.133V17.6zM29.556 17.6h-2.133v1.067h2.133V17.6zM26.356 19.733h-2.133V20.8h2.133v-1.067zM29.556 19.733h-2.133V20.8h2.133v-1.067zM26.356 21.866h-2.133v1.067h2.133v-1.067zM29.556 21.866h-2.133v1.067h2.133v-1.067zM26.356 24h-2.133v1.067h2.133V24zM29.556 24h-2.133v1.067h2.133V24zM12.489 16a3.733 3.733 0 1 0 7.467 0 3.733 3.733 0 0 0-7.467 0zm6.4 0a2.667 2.667 0 1 1-5.334 0 2.667 2.667 0 0 1 5.334 0z" style="fill:var(--color2, #8d5cf6)"/><path fill="#8d5cf6" d="M15.689 15.466h-1.067v1.067h2.133v-2.667h-1.067v1.6z" style="fill:var(--color2, #8d5cf6)"/></symbol><symbol id="icon-download" viewBox="0 0 32 32"><path fill="#737373" d="M1 19.801a.997.997 0 0 1 1 1v5a2 2 0 0 0 2 2h24a2 2 0 0 0 2-2v-5a.997.997 0 0 1 1-1 .997.997 0 0 1 1 1v5a4.003 4.003 0 0 1-4 4H4a4.003 4.003 0 0 1-4-4v-5a.997.997 0 0 1 1-1z" style="fill:var(--color4, #737373)"/><path fill="#737373" d="M15.292 23.708a.991.991 0 0 0 .708.293 1.002 1.002 0 0 0 .708-.293l6-6A1 1 0 0 0 22 15.999a1 1 0 0 0-.708.293L17 20.586V3a.997.997 0 0 0-1-1 .997.997 0 0 0-1 1v17.586l-4.292-4.294A1 1 0 0 0 8.999 17a1 1 0 0 0 .293.708l6 6z" style="fill:var(--color4, #737373)"/></symbol><symbol id="icon-empty-rating-star" viewBox="0 0 32 32"><path fill="#f3cd03" d="m8.344 18.279-1.901 8.234a1.273 1.273 0 0 0 1.952 1.35l6.949-4.632 6.949 4.632a1.278 1.278 0 0 0 1.937-1.411l-2.334-8.167 5.789-5.209a1.281 1.281 0 0 0 .355-1.358 1.28 1.28 0 0 0-1.107-.862l-7.275-.579-3.148-6.969a1.278 1.278 0 0 0-1.163-.754 1.274 1.274 0 0 0-1.163.754l-3.148 6.969-7.275.578a1.28 1.28 0 0 0-1.099.838c-.083.231-.098.48-.044.719s.177.457.353.628l5.378 5.241zm3.641-5.52a1.274 1.274 0 0 0 1.061-.747l2.296-5.08 2.296 5.08a1.28 1.28 0 0 0 1.061.747l5.069.402-4.174 3.757a1.279 1.279 0 0 0-.374 1.299l1.599 5.596-4.768-3.179a1.274 1.274 0 0 0-1.416 0l-4.982 3.322 1.34-5.801a1.275 1.275 0 0 0-.352-1.2l-3.877-3.78 5.219-.416z" style="fill:var(--color5, #f3cd03)"/></symbol><symbol id="icon-envelope" viewBox="0 0 31 32"><path fill="#8d5cf6" d="M-.515 7.036C-.313 6.13.182 5.321.891 4.741s1.588-.895 2.494-.895h24c.906 0 1.786.315 2.494.895s1.204 1.389 1.406 2.295l-15.9 9.967-15.9-9.967zm-.1 2.342V23.95l11.606-7.298L-.615 9.378zm13.522 8.478-13.14 8.261c.325.702.837 1.295 1.478 1.71s1.383.635 2.14.634h24c.758 0 1.5-.22 2.14-.636s1.152-1.009 1.476-1.711l-13.14-8.26-2.476 1.553-2.478-1.551zm6.872-1.202 11.606 7.296V9.378l-11.606 7.276z" style="fill:var(--color2, #8d5cf6)"/></symbol><symbol id="icon-facebook" viewBox="0 0 32 32"><path fill="#8d5cf6" d="M31.333 15.427C31.333 6.907 24.468 0 16.002 0 7.531.002.667 6.907.667 15.429c0 7.698 5.607 14.08 12.936 15.237v-10.78h-3.89v-4.458h3.894v-3.402c0-3.865 2.29-6 5.791-6 1.679 0 3.432.301 3.432.301v3.795h-1.934c-1.903 0-2.497 1.19-2.497 2.411v2.894h4.251l-.678 4.458h-3.574v10.78c7.328-1.158 12.936-7.539 12.936-15.238z" style="fill:var(--color2, #8d5cf6)"/></symbol><symbol id="icon-favorite" viewBox="0 0 32 32"><path fill="#bdbdbd" stroke="#000" d="m16.001 9.525-2.184-2.236a5.98 5.98 0 0 0-8.534 0 6.203 6.203 0 0 0 0 8.702l10.716 10.85L26.715 15.99a6.199 6.199 0 0 0 0-8.701 5.962 5.962 0 0 0-4.266-1.79h-.001v.5m-6.447 3.526 2.172-2.215.357.35m-2.529 1.865 2.17-2.213m-2.17 2.213 2.17-2.213M22.451 6a5.455 5.455 0 0 0-3.92 1.66M22.451 6a5.48 5.48 0 0 1 3.91 1.64L22.451 6zm-3.92 1.66-.36-.347m.36.347-.36-.347M22.45 4.5a6.985 6.985 0 0 1 4.983 2.09 7.22 7.22 0 0 1 0 10.119l-.001.001-11.433 11.579L4.566 16.71a7.22 7.22 0 0 1 0-10.118 6.988 6.988 0 0 1 7.686-1.545 6.988 6.988 0 0 1 2.282 1.545l.001.001L16 8.071l1.467-1.48A6.982 6.982 0 0 1 22.45 4.5z" style="fill:var(--color6, #bdbdbd)"/></symbol><symbol id="icon-instagram" viewBox="0 0 32 32"><path fill="#8d5cf6" d="M16.667 1.333c-3.98 0-4.481.018-6.044.088-1.564.073-2.629.319-3.562.682a7.19 7.19 0 0 0-2.598 1.692 7.202 7.202 0 0 0-1.692 2.598c-.363.931-.611 1.998-.682 3.557-.07 1.567-.088 2.066-.088 6.052 0 3.982.018 4.481.088 6.044.073 1.562.319 2.627.682 3.56a7.208 7.208 0 0 0 1.692 2.598 7.157 7.157 0 0 0 2.596 1.692c.935.363 1.998.611 3.56.682 1.566.07 2.064.088 6.048.088s4.481-.018 6.046-.088c1.56-.073 2.629-.319 3.562-.682a7.181 7.181 0 0 0 2.596-1.692 7.208 7.208 0 0 0 1.692-2.598c.361-.933.609-1.998.682-3.56.07-1.564.088-2.062.088-6.046s-.018-4.482-.088-6.048c-.073-1.56-.321-2.627-.682-3.559a7.202 7.202 0 0 0-1.692-2.598 7.168 7.168 0 0 0-2.598-1.692c-.935-.363-2.002-.611-3.562-.682-1.566-.07-2.063-.088-6.048-.088h.004zm-1.315 2.644h1.316c3.916 0 4.38.013 5.925.084 1.43.064 2.207.304 2.724.504.684.266 1.173.585 1.687 1.098s.831 1.001 1.096 1.687c.202.515.44 1.293.504 2.723.071 1.546.086 2.009.086 5.924s-.015 4.38-.086 5.925c-.064 1.43-.304 2.206-.504 2.723a4.533 4.533 0 0 1-1.098 1.685 4.52 4.52 0 0 1-1.687 1.096c-.513.202-1.291.44-2.723.506-1.546.07-2.009.086-5.925.086s-4.382-.017-5.927-.086c-1.43-.066-2.206-.304-2.723-.506A4.551 4.551 0 0 1 6.33 26.33a4.545 4.545 0 0 1-1.1-1.687c-.2-.515-.44-1.293-.504-2.723-.07-1.546-.084-2.009-.084-5.927 0-3.916.015-4.378.084-5.924.066-1.43.304-2.207.506-2.724.266-.684.585-1.173 1.098-1.687s1.001-.83 1.687-1.096c.517-.202 1.293-.44 2.723-.506 1.353-.062 1.877-.081 4.611-.083v.004zm9.145 2.435a1.764 1.764 0 0 0-1.625 1.087 1.77 1.77 0 0 0 0 1.348 1.749 1.749 0 0 0 .952.953 1.76 1.76 0 1 0 .673-3.387zm-7.828 2.057a7.538 7.538 0 0 0-5.403 2.164 7.538 7.538 0 0 0-1.663 8.278 7.528 7.528 0 0 0 7.066 4.622 7.537 7.537 0 0 0 7.416-7.532 7.534 7.534 0 0 0-7.416-7.532zm0 2.642a4.888 4.888 0 1 1 0 9.776 4.888 4.888 0 0 1 0-9.776z" style="fill:var(--color2, #8d5cf6)"/></symbol><symbol id="icon-like" viewBox="0 0 32 32"><path d="M20 16a4.003 4.003 0 0 1-4 4 4.003 4.003 0 0 1-4-4 4.003 4.003 0 0 1 4-4 4.003 4.003 0 0 1 4 4z"/><path d="M3.2 16S8 7.2 16 7.2 28.8 16 28.8 16 24 24.8 16 24.8 3.2 16 3.2 16zM16 21.6a5.601 5.601 0 1 0 0-11.202A5.601 5.601 0 0 0 16 21.6z"/></symbol><symbol id="icon-location" viewBox="0 0 26 32"><path fill="#8d5cf6" d="M12.8 19.2c3.529 0 6.4-2.87 6.4-6.4s-2.87-6.4-6.4-6.4c-3.53 0-6.4 2.87-6.4 6.4s2.87 6.4 6.4 6.4zm0-9.6c1.765 0 3.2 1.435 3.2 3.2S14.565 16 12.8 16c-1.765 0-3.2-1.435-3.2-3.2s1.435-3.2 3.2-3.2zm-.928 22.102a1.6 1.6 0 0 0 1.856 0c.486-.344 11.918-8.598 11.872-18.902C25.6 5.742 19.858 0 12.8 0S0 5.742 0 12.792c-.046 10.312 11.385 18.566 11.872 18.91zM12.8 3.2c5.294 0 9.6 4.306 9.6 9.608.034 7.101-7.021 13.477-9.6 15.568-2.578-2.093-9.633-8.47-9.6-15.576 0-5.294 4.306-9.6 9.6-9.6zm0 16c3.529 0 6.4-2.87 6.4-6.4s-2.87-6.4-6.4-6.4c-3.53 0-6.4 2.87-6.4 6.4s2.87 6.4 6.4 6.4zm0-9.6c1.765 0 3.2 1.435 3.2 3.2S14.565 16 12.8 16c-1.765 0-3.2-1.435-3.2-3.2s1.435-3.2 3.2-3.2zm-.928 22.102a1.6 1.6 0 0 0 1.856 0c.486-.344 11.918-8.598 11.872-18.902C25.6 5.742 19.858 0 12.8 0S0 5.742 0 12.792c-.046 10.312 11.385 18.566 11.872 18.91zM12.8 3.2c5.294 0 9.6 4.306 9.6 9.608.034 7.101-7.021 13.477-9.6 15.568-2.578-2.093-9.633-8.47-9.6-15.576 0-5.294 4.306-9.6 9.6-9.6z" style="fill:var(--color2, #8d5cf6)"/></symbol><symbol id="icon-phone" viewBox="0 0 33 32"><path fill="#8d5cf6" d="M25.797 16.469A1.593 1.593 0 0 0 24.666 16a1.588 1.588 0 0 0-1.131.469l-2.55 2.55c-1.182-.352-3.389-1.152-4.787-2.55s-2.198-3.605-2.55-4.787l2.55-2.55a1.606 1.606 0 0 0 .347-1.743 1.593 1.593 0 0 0-.347-.519l-6.4-6.4A1.606 1.606 0 0 0 8.055.123c-.194.081-.37.198-.519.347L3.197 4.809a3.201 3.201 0 0 0-.938 2.296c.037 2.278.64 10.192 6.877 16.429s14.15 6.838 16.43 6.877h.045c.845 0 1.643-.333 2.248-.938l4.339-4.339a1.593 1.593 0 0 0 .469-1.131 1.588 1.588 0 0 0-.469-1.131l-6.4-6.402zm-.203 10.739c-1.997-.034-8.829-.57-14.197-5.939C6.011 15.883 5.49 9.027 5.458 7.071l3.208-3.208 4.138 4.138-2.069 2.069a1.6 1.6 0 0 0-.435 1.46c.038.184.978 4.547 3.634 7.203s7.019 3.595 7.203 3.634a1.594 1.594 0 0 0 1.459-.433l2.07-2.069 4.138 4.138-3.21 3.208z" style="fill:var(--color2, #8d5cf6)"/></symbol><symbol id="icon-rating-star" viewBox="0 0 32 32"><path fill="#f3cd03" d="M29.352 11.713a1.275 1.275 0 0 0-1.108-.863l-7.275-.578-3.148-6.969a1.271 1.271 0 0 0-1.163-.754c-.246 0-.486.071-.693.204s-.37.324-.47.548l-3.148 6.97-7.275.578a1.28 1.28 0 0 0-1.099.838c-.083.231-.098.48-.044.719s.177.457.353.628l5.376 5.241-1.901 8.234a1.278 1.278 0 0 0 .518 1.338 1.28 1.28 0 0 0 1.435.011l6.949-4.632 6.949 4.632a1.278 1.278 0 0 0 1.937-1.412l-2.334-8.167L29 13.07c.379-.342.518-.875.355-1.359z" style="fill:var(--color5, #f3cd03)"/></symbol><symbol id="icon-star" viewBox="0 0 32 32"><path fill="#ffce31" d="M31 12.6H19.55L16 1.5l-3.55 11.1H1l9.25 6.85-3.5 11.05L16 23.65l9.25 6.85-3.55-11.1 9.3-6.8z" style="fill:var(--color7, #ffce31)"/></symbol><symbol id="icon-twitter" viewBox="0 0 38 32"><path fill="#8d5cf6" d="M13.457 30.4c13.284 0 20.55-11.083 20.55-20.677 0-.31 0-.625-.013-.935a14.76 14.76 0 0 0 3.606-3.77 14.585 14.585 0 0 1-4.156 1.148 7.306 7.306 0 0 0 3.184-4.025 14.322 14.322 0 0 1-4.592 1.757c-1.088-1.167-2.529-1.941-4.098-2.2s-3.18.009-4.582.765c-1.402.755-2.518 1.955-3.174 3.414s-.817 3.094-.456 4.654c-2.872-.145-5.681-.896-8.245-2.205S6.653 5.181 4.839 2.935c-.921 1.602-1.202 3.497-.786 5.3s1.498 3.379 3.026 4.408a7.269 7.269 0 0 1-3.269-.904v.1c.002 1.678.579 3.304 1.634 4.603s2.523 2.191 4.156 2.526c-.62.172-1.26.258-1.903.255a7.121 7.121 0 0 1-1.351-.126c.462 1.444 1.36 2.707 2.57 3.612s2.671 1.405 4.177 1.432a14.434 14.434 0 0 1-8.976 3.117 13.852 13.852 0 0 1-1.716-.1 20.443 20.443 0 0 0 11.057 3.245z" style="fill:var(--color2, #8d5cf6)"/></symbol></defs></svg>