<svg width="23" height="23" viewBox="0 0 23 23" fill="none" xmlns="http://www.w3.org/2000/svg">
<path d="M5.99748 13.1384L4.6308 19.0564C4.58848 19.2356 4.60118 19.4234 4.66725 19.5953C4.73332 19.7671 4.84969 19.9151 5.00115 20.0198C5.15261 20.1245 5.33213 20.1811 5.51625 20.1822C5.70038 20.1833 5.88056 20.1288 6.03325 20.0259L11.0276 16.6964L16.0219 20.0259C16.1782 20.1297 16.3624 20.1831 16.5499 20.1789C16.7374 20.1748 16.9191 20.1134 17.0707 20.0029C17.2222 19.8924 17.3363 19.7382 17.3976 19.5609C17.4588 19.3837 17.4643 19.1919 17.4134 19.0115L15.7358 13.1412L19.8963 9.39701C20.0296 9.27702 20.1247 9.12061 20.17 8.94712C20.2153 8.77362 20.2088 8.59065 20.1512 8.42083C20.0936 8.25102 19.9875 8.1018 19.8461 7.99164C19.7046 7.88148 19.5339 7.81521 19.3552 7.80102L14.126 7.3846L11.8632 2.37558C11.791 2.21429 11.6737 2.07733 11.5255 1.98123C11.3772 1.88512 11.2043 1.83398 11.0276 1.83398C10.8509 1.83398 10.678 1.88512 10.5297 1.98123C10.3814 2.07733 10.2641 2.21429 10.192 2.37558L7.92917 7.3846L2.70002 7.8001C2.52433 7.81402 2.35637 7.87826 2.21623 7.98514C2.07609 8.09201 1.96971 8.237 1.90982 8.40275C1.84992 8.56851 1.83905 8.748 1.8785 8.91977C1.91794 9.09155 2.00604 9.24831 2.13225 9.37133L5.99748 13.1384ZM8.61435 9.17045C8.77807 9.15755 8.9353 9.10085 9.06957 9.00628C9.20384 8.91171 9.31019 8.78276 9.37749 8.63295L11.0276 4.98144L12.6777 8.63295C12.745 8.78276 12.8513 8.91171 12.9856 9.00628C13.1199 9.10085 13.2771 9.15755 13.4408 9.17045L17.0841 9.45938L14.0838 12.1597C13.8233 12.3945 13.7197 12.7559 13.8151 13.0935L14.9644 17.1155L11.5376 14.8307C11.3872 14.7298 11.2101 14.6758 11.029 14.6758C10.8478 14.6758 10.6708 14.7298 10.5204 14.8307L6.93948 17.2183L7.90257 13.0485C7.93789 12.8952 7.93315 12.7353 7.88881 12.5843C7.84448 12.4333 7.76203 12.2962 7.64942 12.1863L4.86286 9.46947L8.61435 9.17045Z" fill="#F3CD03"/>
</svg>
