<svg width="23" height="23" viewBox="0 0 23 23" fill="none" xmlns="http://www.w3.org/2000/svg">
<path d="M21.0966 8.41866C21.039 8.24885 20.9329 8.09964 20.7914 7.98945C20.6499 7.87926 20.4792 7.81292 20.3005 7.79861L15.0713 7.3831L12.8085 2.37409C12.7364 2.21276 12.6192 2.07573 12.471 1.97955C12.3228 1.88336 12.1499 1.83213 11.9732 1.83203C11.7965 1.83193 11.6236 1.88298 11.4752 1.979C11.3269 2.07502 11.2095 2.21192 11.1373 2.37317L8.87449 7.3831L3.64533 7.79861C3.46964 7.81253 3.30168 7.87677 3.16154 7.98364C3.02141 8.09052 2.91503 8.23551 2.85513 8.40126C2.79524 8.56701 2.78436 8.74651 2.82381 8.91828C2.86326 9.09005 2.95136 9.24682 3.07757 9.36983L6.94187 13.1369L5.57519 19.0549C5.5337 19.234 5.547 19.4215 5.61337 19.593C5.67974 19.7645 5.79612 19.9121 5.94741 20.0166C6.0987 20.1211 6.2779 20.1777 6.46178 20.1791C6.64565 20.1805 6.8257 20.1266 6.97856 20.0244L11.9729 16.6949L16.9672 20.0244C17.1235 20.1282 17.3077 20.1816 17.4952 20.1774C17.6827 20.1733 17.8645 20.1119 18.016 20.0014C18.1675 19.8909 18.2816 19.7367 18.3429 19.5595C18.4041 19.3822 18.4097 19.1904 18.3587 19.01L16.6811 13.1397L20.8416 9.39551C21.1141 9.1497 21.214 8.76629 21.0966 8.41866Z" fill="#F3CD03"/>
</svg>
